<mxfile host="app.diagrams.net" modified="2024-07-26T02:52:26.088Z" agent="Mozilla/5.0 (Windows NT 10.0; Win64; x64) AppleWebKit/537.36 (KHTML, like Gecko) Chrome/126.0.0.0 Safari/537.36" etag="7jwPJxzQFmjzPoxcMCFB" version="24.0.2" type="github">
  <diagram name="Page-1" id="WG7_-l8uBcr4gykH47cy">
    <mxGraphModel dx="1433" dy="1749" grid="1" gridSize="10" guides="1" tooltips="1" connect="1" arrows="1" fold="1" page="1" pageScale="1" pageWidth="827" pageHeight="1169" math="0" shadow="0">
      <root>
        <mxCell id="0" />
        <mxCell id="1" parent="0" />
        <mxCell id="vM06K7ApRi8JDN97dVqW-1" value="Monitoring &amp;amp; Logging" style="rounded=1;whiteSpace=wrap;html=1;" vertex="1" parent="1">
          <mxGeometry x="80" width="170" height="40" as="geometry" />
        </mxCell>
        <mxCell id="vM06K7ApRi8JDN97dVqW-2" value="Load balancer for Crawler Data" style="rounded=1;whiteSpace=wrap;html=1;" vertex="1" parent="1">
          <mxGeometry x="70" y="150" width="190" height="40" as="geometry" />
        </mxCell>
        <mxCell id="vM06K7ApRi8JDN97dVqW-3" value="Crawlers(Number of crawlers cn be customized as needed)" style="rounded=1;whiteSpace=wrap;html=1;" vertex="1" parent="1">
          <mxGeometry x="35" y="80" width="260" height="30" as="geometry" />
        </mxCell>
        <mxCell id="vM06K7ApRi8JDN97dVqW-9" value="&lt;font style=&quot;font-size: 14px;&quot;&gt;&lt;b&gt;WEB SERVERS&lt;/b&gt;&lt;/font&gt;" style="rounded=1;whiteSpace=wrap;html=1;" vertex="1" parent="1">
          <mxGeometry x="40" y="260" width="680" height="100" as="geometry" />
        </mxCell>
        <mxCell id="vM06K7ApRi8JDN97dVqW-10" value="" style="shape=mxgraph.cisco.misc.breakout_box;html=1;pointerEvents=1;dashed=0;fillColor=#036897;strokeColor=#ffffff;strokeWidth=2;verticalLabelPosition=bottom;verticalAlign=top;align=center;outlineConnect=0;" vertex="1" parent="1">
          <mxGeometry x="139" y="270" width="41" height="80" as="geometry" />
        </mxCell>
        <mxCell id="vM06K7ApRi8JDN97dVqW-12" value="" style="shape=mxgraph.cisco.misc.breakout_box;html=1;pointerEvents=1;dashed=0;fillColor=#036897;strokeColor=#ffffff;strokeWidth=2;verticalLabelPosition=bottom;verticalAlign=top;align=center;outlineConnect=0;" vertex="1" parent="1">
          <mxGeometry x="560" y="270" width="43" height="75" as="geometry" />
        </mxCell>
        <mxCell id="vM06K7ApRi8JDN97dVqW-13" value="Web server 01" style="text;strokeColor=none;align=center;fillColor=none;html=1;verticalAlign=middle;whiteSpace=wrap;rounded=0;" vertex="1" parent="1">
          <mxGeometry x="180" y="320" width="60" height="30" as="geometry" />
        </mxCell>
        <mxCell id="vM06K7ApRi8JDN97dVqW-14" value="Web server 02" style="text;strokeColor=none;align=center;fillColor=none;html=1;verticalAlign=middle;whiteSpace=wrap;rounded=0;" vertex="1" parent="1">
          <mxGeometry x="603" y="320" width="57" height="30" as="geometry" />
        </mxCell>
        <mxCell id="vM06K7ApRi8JDN97dVqW-16" value="&lt;b&gt;APPLICATION SERVER&lt;/b&gt;" style="rounded=1;whiteSpace=wrap;html=1;" vertex="1" parent="1">
          <mxGeometry x="40" y="400" width="680" height="100" as="geometry" />
        </mxCell>
        <mxCell id="vM06K7ApRi8JDN97dVqW-17" value="" style="shape=mxgraph.cisco.misc.breakout_box;html=1;pointerEvents=1;dashed=0;fillColor=#036897;strokeColor=#ffffff;strokeWidth=2;verticalLabelPosition=bottom;verticalAlign=top;align=center;outlineConnect=0;" vertex="1" parent="1">
          <mxGeometry x="139" y="410" width="41" height="80" as="geometry" />
        </mxCell>
        <mxCell id="vM06K7ApRi8JDN97dVqW-18" value="" style="shape=mxgraph.cisco.misc.breakout_box;html=1;pointerEvents=1;dashed=0;fillColor=#036897;strokeColor=#ffffff;strokeWidth=2;verticalLabelPosition=bottom;verticalAlign=top;align=center;outlineConnect=0;" vertex="1" parent="1">
          <mxGeometry x="560" y="410" width="43" height="75" as="geometry" />
        </mxCell>
        <mxCell id="vM06K7ApRi8JDN97dVqW-19" value="App server 01" style="text;strokeColor=none;align=center;fillColor=none;html=1;verticalAlign=middle;whiteSpace=wrap;rounded=0;" vertex="1" parent="1">
          <mxGeometry x="180" y="460" width="60" height="30" as="geometry" />
        </mxCell>
        <mxCell id="vM06K7ApRi8JDN97dVqW-20" value="App server 02" style="text;strokeColor=none;align=center;fillColor=none;html=1;verticalAlign=middle;whiteSpace=wrap;rounded=0;" vertex="1" parent="1">
          <mxGeometry x="603" y="460" width="57" height="30" as="geometry" />
        </mxCell>
        <mxCell id="vM06K7ApRi8JDN97dVqW-21" value="" style="sketch=0;outlineConnect=0;fontColor=#232F3E;gradientColor=none;fillColor=#7AA116;strokeColor=none;dashed=0;verticalLabelPosition=bottom;verticalAlign=top;align=center;html=1;fontSize=12;fontStyle=0;aspect=fixed;pointerEvents=1;shape=mxgraph.aws4.iot_analytics_data_store;" vertex="1" parent="1">
          <mxGeometry x="369.81" y="560" width="124.62" height="180" as="geometry" />
        </mxCell>
        <mxCell id="vM06K7ApRi8JDN97dVqW-26" value="USER" style="rounded=1;whiteSpace=wrap;html=1;" vertex="1" parent="1">
          <mxGeometry x="845" y="-10" width="120" height="40" as="geometry" />
        </mxCell>
        <mxCell id="vM06K7ApRi8JDN97dVqW-27" value="Access" style="rounded=0;whiteSpace=wrap;html=1;" vertex="1" parent="1">
          <mxGeometry x="845" y="50" width="120" height="40" as="geometry" />
        </mxCell>
        <mxCell id="vM06K7ApRi8JDN97dVqW-28" value="Content Delivery Network (CDN)" style="rounded=1;whiteSpace=wrap;html=1;" vertex="1" parent="1">
          <mxGeometry x="845" y="110" width="120" height="40" as="geometry" />
        </mxCell>
        <mxCell id="vM06K7ApRi8JDN97dVqW-29" value="Load balancer for user requests" style="rounded=1;whiteSpace=wrap;html=1;" vertex="1" parent="1">
          <mxGeometry x="810" y="170" width="190" height="40" as="geometry" />
        </mxCell>
        <mxCell id="vM06K7ApRi8JDN97dVqW-30" value="&lt;b&gt;&lt;font style=&quot;font-size: 18px;&quot;&gt;Message Queues&lt;/font&gt;&lt;/b&gt;" style="text;strokeColor=none;align=center;fillColor=none;html=1;verticalAlign=middle;whiteSpace=wrap;rounded=0;" vertex="1" parent="1">
          <mxGeometry x="180" y="610" width="370" height="50" as="geometry" />
        </mxCell>
        <mxCell id="vM06K7ApRi8JDN97dVqW-35" value="" style="shape=mxgraph.cisco.misc.breakout_box;html=1;pointerEvents=1;dashed=0;fillColor=#036897;strokeColor=#ffffff;strokeWidth=2;verticalLabelPosition=bottom;verticalAlign=top;align=center;outlineConnect=0;" vertex="1" parent="1">
          <mxGeometry x="855" y="250" width="43" height="75" as="geometry" />
        </mxCell>
        <mxCell id="vM06K7ApRi8JDN97dVqW-36" value="Web server 03" style="text;strokeColor=none;align=center;fillColor=none;html=1;verticalAlign=middle;whiteSpace=wrap;rounded=0;" vertex="1" parent="1">
          <mxGeometry x="898" y="300" width="57" height="30" as="geometry" />
        </mxCell>
        <mxCell id="vM06K7ApRi8JDN97dVqW-37" value="" style="shape=mxgraph.cisco.misc.breakout_box;html=1;pointerEvents=1;dashed=0;fillColor=#036897;strokeColor=#ffffff;strokeWidth=2;verticalLabelPosition=bottom;verticalAlign=top;align=center;outlineConnect=0;" vertex="1" parent="1">
          <mxGeometry x="855" y="390" width="43" height="75" as="geometry" />
        </mxCell>
        <mxCell id="vM06K7ApRi8JDN97dVqW-38" value="App server 03" style="text;strokeColor=none;align=center;fillColor=none;html=1;verticalAlign=middle;whiteSpace=wrap;rounded=0;" vertex="1" parent="1">
          <mxGeometry x="898" y="440" width="57" height="30" as="geometry" />
        </mxCell>
        <mxCell id="vM06K7ApRi8JDN97dVqW-39" value="&lt;b&gt;&lt;font style=&quot;font-size: 14px;&quot;&gt;MACHINE LEARNING PROCESSING UNITS&lt;/font&gt;&lt;/b&gt;" style="outlineConnect=0;dashed=0;verticalLabelPosition=bottom;verticalAlign=top;align=center;html=1;shape=mxgraph.aws3.machine_learning;fillColor=#2E73B8;gradientColor=none;" vertex="1" parent="1">
          <mxGeometry x="262.03" y="780" width="205.94" height="130" as="geometry" />
        </mxCell>
        <mxCell id="vM06K7ApRi8JDN97dVqW-40" value="&lt;b&gt;&lt;font style=&quot;font-size: 14px;&quot;&gt;PRIMARY db cluster&lt;/font&gt;&lt;/b&gt;" style="image;aspect=fixed;perimeter=ellipsePerimeter;html=1;align=center;shadow=0;dashed=0;spacingTop=3;image=img/lib/active_directory/database.svg;" vertex="1" parent="1">
          <mxGeometry x="283.5" y="990" width="163" height="120.62" as="geometry" />
        </mxCell>
        <mxCell id="vM06K7ApRi8JDN97dVqW-47" value="&lt;b&gt;&lt;font style=&quot;font-size: 14px;&quot;&gt;Database for user requests(cache)&lt;/font&gt;&lt;/b&gt;" style="image;aspect=fixed;perimeter=ellipsePerimeter;html=1;align=center;shadow=0;dashed=0;spacingTop=3;image=img/lib/active_directory/database_partition_4.svg;" vertex="1" parent="1">
          <mxGeometry x="829.21" y="515" width="94.59" height="70" as="geometry" />
        </mxCell>
        <mxCell id="vM06K7ApRi8JDN97dVqW-48" value="&lt;font style=&quot;font-size: 14px;&quot;&gt;&lt;b&gt;Secondary storage server&lt;/b&gt;&lt;/font&gt;" style="image;aspect=fixed;perimeter=ellipsePerimeter;html=1;align=center;shadow=0;dashed=0;spacingTop=3;image=img/lib/active_directory/database_server.svg;" vertex="1" parent="1">
          <mxGeometry x="670" y="1260" width="123.82" height="151" as="geometry" />
        </mxCell>
        <mxCell id="vM06K7ApRi8JDN97dVqW-49" value="" style="shape=singleArrow;direction=south;whiteSpace=wrap;html=1;fillColor=#1A1A1A;" vertex="1" parent="1">
          <mxGeometry x="155" y="190" width="25" height="60" as="geometry" />
        </mxCell>
        <mxCell id="vM06K7ApRi8JDN97dVqW-50" value="" style="shape=singleArrow;direction=south;whiteSpace=wrap;html=1;fillColor=#1A1A1A;" vertex="1" parent="1">
          <mxGeometry x="152.5" y="40" width="25" height="40" as="geometry" />
        </mxCell>
        <mxCell id="vM06K7ApRi8JDN97dVqW-51" value="" style="shape=singleArrow;direction=south;whiteSpace=wrap;html=1;fillColor=#1A1A1A;" vertex="1" parent="1">
          <mxGeometry x="157.5" y="115" width="15" height="30" as="geometry" />
        </mxCell>
        <mxCell id="vM06K7ApRi8JDN97dVqW-52" value="" style="shape=singleArrow;direction=south;whiteSpace=wrap;html=1;fillColor=#1A1A1A;" vertex="1" parent="1">
          <mxGeometry x="892.5" y="90" width="25" height="20" as="geometry" />
        </mxCell>
        <mxCell id="vM06K7ApRi8JDN97dVqW-53" value="" style="shape=singleArrow;direction=south;whiteSpace=wrap;html=1;fillColor=#1A1A1A;" vertex="1" parent="1">
          <mxGeometry x="897.5" y="30" width="15" height="20" as="geometry" />
        </mxCell>
        <mxCell id="vM06K7ApRi8JDN97dVqW-54" value="" style="shape=singleArrow;direction=south;whiteSpace=wrap;html=1;fillColor=#1A1A1A;" vertex="1" parent="1">
          <mxGeometry x="897.5" y="150" width="15" height="20" as="geometry" />
        </mxCell>
        <mxCell id="vM06K7ApRi8JDN97dVqW-55" value="" style="shape=singleArrow;direction=south;whiteSpace=wrap;html=1;fillColor=#1A1A1A;" vertex="1" parent="1">
          <mxGeometry x="902.5" y="210" width="15" height="30" as="geometry" />
        </mxCell>
        <mxCell id="vM06K7ApRi8JDN97dVqW-56" value="" style="shape=singleArrow;direction=south;whiteSpace=wrap;html=1;fillColor=#1A1A1A;" vertex="1" parent="1">
          <mxGeometry x="902.5" y="340" width="15" height="30" as="geometry" />
        </mxCell>
        <mxCell id="vM06K7ApRi8JDN97dVqW-57" value="" style="shape=singleArrow;direction=south;whiteSpace=wrap;html=1;fillColor=#1A1A1A;" vertex="1" parent="1">
          <mxGeometry x="908.8" y="480" width="15" height="30" as="geometry" />
        </mxCell>
        <mxCell id="vM06K7ApRi8JDN97dVqW-58" value="" style="shape=singleArrow;direction=south;whiteSpace=wrap;html=1;fillColor=#1A1A1A;" vertex="1" parent="1">
          <mxGeometry x="357.5" y="360" width="15" height="30" as="geometry" />
        </mxCell>
        <mxCell id="vM06K7ApRi8JDN97dVqW-59" value="" style="shape=singleArrow;direction=south;whiteSpace=wrap;html=1;fillColor=#1A1A1A;" vertex="1" parent="1">
          <mxGeometry x="354.81" y="510" width="15" height="30" as="geometry" />
        </mxCell>
        <mxCell id="vM06K7ApRi8JDN97dVqW-60" value="" style="shape=singleArrow;direction=south;whiteSpace=wrap;html=1;fillColor=#1A1A1A;" vertex="1" parent="1">
          <mxGeometry x="354.81" y="740" width="15" height="40" as="geometry" />
        </mxCell>
        <mxCell id="vM06K7ApRi8JDN97dVqW-61" value="" style="shape=singleArrow;direction=south;whiteSpace=wrap;html=1;fillColor=#1A1A1A;" vertex="1" parent="1">
          <mxGeometry x="354.81" y="940" width="25" height="60" as="geometry" />
        </mxCell>
        <mxCell id="vM06K7ApRi8JDN97dVqW-62" value="" style="html=1;shadow=0;dashed=0;align=center;verticalAlign=middle;shape=mxgraph.arrows2.bendArrow;dy=15;dx=38;notch=0;arrowHead=55;rounded=1;direction=west;fillColor=#CCCCCC;" vertex="1" parent="1">
          <mxGeometry x="470" y="630" width="400" height="440" as="geometry" />
        </mxCell>
        <mxCell id="vM06K7ApRi8JDN97dVqW-65" value="" style="html=1;shadow=0;dashed=0;align=center;verticalAlign=middle;shape=mxgraph.arrows2.jumpInArrow;dy=15;dx=38;arrowHead=55;direction=south;fillColor=#E6E6E6;" vertex="1" parent="1">
          <mxGeometry x="446.5" y="1120" width="283.5" height="140" as="geometry" />
        </mxCell>
        <mxCell id="vM06K7ApRi8JDN97dVqW-66" value="" style="sketch=0;outlineConnect=0;fontColor=#232F3E;gradientColor=none;fillColor=#7AA116;strokeColor=none;dashed=0;verticalLabelPosition=bottom;verticalAlign=top;align=center;html=1;fontSize=12;fontStyle=0;aspect=fixed;pointerEvents=1;shape=mxgraph.aws4.iot_analytics_data_store;" vertex="1" parent="1">
          <mxGeometry x="220" y="560" width="124.62" height="180" as="geometry" />
        </mxCell>
        <mxCell id="vM06K7ApRi8JDN97dVqW-67" value="" style="outlineConnect=0;dashed=0;verticalLabelPosition=bottom;verticalAlign=top;align=center;html=1;shape=mxgraph.aws3.machine_learning;fillColor=#2E73B8;gradientColor=none;" vertex="1" parent="1">
          <mxGeometry x="485.28" y="780" width="205.94" height="130" as="geometry" />
        </mxCell>
        <mxCell id="vM06K7ApRi8JDN97dVqW-68" value="" style="outlineConnect=0;dashed=0;verticalLabelPosition=bottom;verticalAlign=top;align=center;html=1;shape=mxgraph.aws3.machine_learning;fillColor=#2E73B8;gradientColor=none;" vertex="1" parent="1">
          <mxGeometry x="39.99999999999997" y="785" width="205.94" height="130" as="geometry" />
        </mxCell>
        <mxCell id="vM06K7ApRi8JDN97dVqW-70" value="" style="image;aspect=fixed;perimeter=ellipsePerimeter;html=1;align=center;shadow=0;dashed=0;spacingTop=3;image=img/lib/active_directory/database_cube.svg;" vertex="1" parent="1">
          <mxGeometry x="314.81" y="1240" width="95" height="105.56" as="geometry" />
        </mxCell>
        <mxCell id="vM06K7ApRi8JDN97dVqW-71" value="&lt;b&gt;&lt;font style=&quot;font-size: 14px;&quot;&gt;Backup&lt;/font&gt;&lt;/b&gt;" style="text;html=1;align=center;verticalAlign=middle;resizable=0;points=[];autosize=1;strokeColor=none;fillColor=none;" vertex="1" parent="1">
          <mxGeometry x="314.81" y="1300" width="70" height="30" as="geometry" />
        </mxCell>
        <mxCell id="vM06K7ApRi8JDN97dVqW-72" value="" style="shape=flexArrow;endArrow=classic;startArrow=classic;html=1;rounded=0;exitX=0.5;exitY=0;exitDx=0;exitDy=0;fillColor=#CCCCCC;" edge="1" parent="1" source="vM06K7ApRi8JDN97dVqW-70">
          <mxGeometry width="100" height="100" relative="1" as="geometry">
            <mxPoint x="480" y="1330" as="sourcePoint" />
            <mxPoint x="362" y="1170" as="targetPoint" />
          </mxGeometry>
        </mxCell>
      </root>
    </mxGraphModel>
  </diagram>
</mxfile>
